<svg xmlns="http://www.w3.org/2000/svg" width="36" height="36" viewBox="0 0 36 36" fill="none">
  <path d="M33.376 7.74856H23.8468L21.9225 4.51591C21.7343 4.19985 21.3937 4.00621 21.0259 4.00621H14.9739C14.606 4.00621 14.2654 4.19985 14.0772 4.51591L12.153 7.74856H9.02601V7.03608C9.02601 6.45984 8.55883 5.99266 7.98258 5.99266H4.12179C3.54543 5.99266 3.07837 6.45984 3.07837 7.03608V7.74856H2.62384C1.17463 7.74856 0 8.92331 0 10.3723V29.3694C0 30.8185 1.17463 31.9933 2.62373 31.9933H33.376C34.8251 31.9933 35.9999 30.8185 35.9999 29.3694V10.3723C36 8.92331 34.8251 7.74856 33.376 7.74856ZM17.9999 27.3393C13.8752 27.3393 10.5315 23.9956 10.5315 19.8707C10.5315 15.7461 13.8752 12.4023 17.9999 12.4023C22.1246 12.4023 25.4683 15.7461 25.4683 19.8707C25.4683 23.9956 22.1246 27.3393 17.9999 27.3393ZM31.739 13.1579H28.4695C27.8932 13.1579 27.4261 12.6907 27.4261 12.1144C27.4261 11.538 27.8932 11.0708 28.4695 11.0708H31.739C32.3155 11.0708 32.7826 11.538 32.7826 12.1144C32.7826 12.6907 32.3154 13.1579 31.739 13.1579Z" fill="#606060"/>
  <path d="M17.9996 25.0881C20.8811 25.0881 23.217 22.7522 23.217 19.8706C23.217 16.9891 20.8811 14.6532 17.9996 14.6532C15.118 14.6532 12.7821 16.9891 12.7821 19.8706C12.7821 22.7522 15.118 25.0881 17.9996 25.0881Z" fill="#606060"/>
</svg>