<svg xmlns="http://www.w3.org/2000/svg" width="25" height="24" viewBox="0 0 25 24" fill="none">
  <path d="M12.7837 15.6356C15.0001 15.6356 16.7954 13.9095 16.7954 11.7783V6.47459C16.7954 4.34344 15.0001 2.61731 12.7837 2.61731C10.5672 2.61731 8.77197 4.34344 8.77197 6.47459V11.7783C8.77197 13.9095 10.5672 15.6356 12.7837 15.6356Z" stroke="#292D32" stroke-width="1.5" stroke-linecap="round" stroke-linejoin="round"/>
  <path d="M5.11133 9.99435V11.6337C5.11133 15.7031 8.55136 19.0107 12.7837 19.0107C17.016 19.0107 20.4561 15.7031 20.4561 11.6337V9.99435" stroke="#292D32" stroke-width="1.5" stroke-linecap="round" stroke-linejoin="round"/>
  <path d="M11.3896 6.88924C12.2923 6.57102 13.2751 6.57102 14.1778 6.88924" stroke="#292D32" stroke-width="1.5" stroke-linecap="round" stroke-linejoin="round"/>
  <path d="M11.9814 8.93382C12.513 8.79881 13.0646 8.79881 13.5962 8.93382" stroke="#292D32" stroke-width="1.5" stroke-linecap="round" stroke-linejoin="round"/>
  <path d="M12.7837 19.0104V21.9033" stroke="#292D32" stroke-width="1.5" stroke-linecap="round" stroke-linejoin="round"/>
</svg>