<svg xmlns="http://www.w3.org/2000/svg" width="31" height="33" viewBox="0 0 31 33" fill="none">
  <path opacity="0.4" d="M25.8237 26.0607H18.4686C17.751 26.0607 17.1674 26.6919 17.1674 27.4679C17.1674 28.2453 17.751 28.875 18.4686 28.875H25.8237C26.5413 28.875 27.125 28.2453 27.125 27.4679C27.125 26.6919 26.5413 26.0607 25.8237 26.0607Z" fill="url(#paint0_linear_5_598)"/>
  <path d="M13.3158 9.49283L20.2855 15.488C20.4536 15.6313 20.4823 15.8944 20.3511 16.0777L12.0884 27.5388C11.569 28.2468 10.8035 28.6474 9.9834 28.6622L5.47274 28.7213C5.23217 28.7242 5.02167 28.5469 4.967 28.2926L3.94185 23.548C3.76416 22.6759 3.94185 21.7743 4.46126 21.0796L12.765 9.56378C12.8989 9.37902 13.1463 9.3465 13.3158 9.49283Z" fill="url(#paint1_linear_5_598)"/>
  <path opacity="0.4" d="M23.4058 11.915L22.0622 13.7005C21.9268 13.8823 21.6835 13.9119 21.5154 13.767C19.882 12.3599 15.6994 8.74891 14.5389 7.74825C14.3694 7.60044 14.3462 7.33734 14.4829 7.15406L15.7787 5.44095C16.9542 3.82984 19.0045 3.68203 20.6584 5.08621L22.5583 6.69733C23.3374 7.34769 23.8569 8.20498 24.0345 9.10661C24.2396 10.0984 24.0209 11.0725 23.4058 11.915Z" fill="url(#paint2_linear_5_598)"/>
  <defs>
    <linearGradient id="paint0_linear_5_598" x1="17.1674" y1="25.8879" x2="26.2184" y2="30.8497" gradientUnits="userSpaceOnUse">
      <stop stop-color="#53E88B"/>
      <stop offset="1" stop-color="#15BE77"/>
    </linearGradient>
    <linearGradient id="paint1_linear_5_598" x1="3.875" y1="8.2148" x2="23.1097" y2="10.7689" gradientUnits="userSpaceOnUse">
      <stop stop-color="#53E88B"/>
      <stop offset="1" stop-color="#15BE77"/>
    </linearGradient>
    <linearGradient id="paint2_linear_5_598" x1="14.3942" y1="3.5273" x2="25.6104" y2="5.26176" gradientUnits="userSpaceOnUse">
      <stop stop-color="#53E88B"/>
      <stop offset="1" stop-color="#15BE77"/>
    </linearGradient>
  </defs>
</svg>